<svg id="圖層_1" data-name="圖層 1" xmlns="http://www.w3.org/2000/svg" viewBox="0 0 123.88 122.44"><defs><style>.cls-1{fill:#FFD5AF;}</style></defs><title>logo</title><path class="cls-1" d="M309.58,486.72c-8.47,0-16.95,0-25.42,0A4.74,4.74,0,0,1,282,486c-8.26-4.63-16.52-9.25-24.7-14a4.12,4.12,0,0,1-1.71-3c-.11-16.19-.09-32.38,0-48.56a3,3,0,0,1,.88-2.28c4-2.44,8-4.71,12.67-7.39v4c0,14.79.13,29.58-.09,44.37,0,3.26,1.24,4.7,3.85,6.14,11.53,6.34,23,12.87,34.41,19.34.86.49,1.66,1.06,2.49,1.59Z" transform="translate(-238.78 -364.33)"/><path class="cls-1" d="M291.86,364.38c8.47,0,16.95,0,25.42,0a5,5,0,0,1,2.21.7c8.26,4.63,16.52,9.25,24.7,14a4.15,4.15,0,0,1,1.72,3c.1,16.18.08,32.37,0,48.56a3.06,3.06,0,0,1-.88,2.28c-4,2.44-8,4.71-12.67,7.38v-4c0-14.79-.13-29.58.09-44.36,0-3.27-1.24-4.71-3.85-6.14-11.53-6.34-22.95-12.88-34.41-19.35-.86-.48-1.66-1.06-2.49-1.59Z" transform="translate(-238.78 -364.33)"/><path class="cls-1" d="M243.32,402.64c4.23-7.34,8.45-14.68,12.73-22a4.94,4.94,0,0,1,1.71-1.56c8.14-4.84,16.28-9.69,24.5-14.38a4.15,4.15,0,0,1,3.48,0q21.11,12,42.07,24.25c.68.39,1.52,1.24,1.54,1.9.13,4.65.06,9.31,0,14.67l-3.48-2c-12.8-7.4-25.67-14.68-38.37-22.27-2.8-1.67-4.69-1.28-7.24.27-11.26,6.82-22.63,13.44-34,20.13-.85.5-1.75.91-2.62,1.36Z" transform="translate(-238.78 -364.33)"/><path class="cls-1" d="M358.13,448.46c-4.24,7.34-8.46,14.69-12.74,22a4.68,4.68,0,0,1-1.71,1.56c-8.14,4.84-16.28,9.69-24.5,14.38a4.15,4.15,0,0,1-3.48,0q-21.1-12-42.07-24.25c-.68-.39-1.52-1.25-1.54-1.91-.12-4.65-.06-9.31,0-14.66l3.48,2c12.8,7.39,25.68,14.68,38.37,22.26,2.8,1.68,4.7,1.28,7.24-.26,11.26-6.82,22.63-13.45,34-20.13.84-.5,1.74-.91,2.61-1.36Z" transform="translate(-238.78 -364.33)"/><path class="cls-1" d="M252.18,463.81c-4.24-7.34-8.49-14.67-12.69-22a4.93,4.93,0,0,1-.5-2.26c-.12-9.47-.25-18.94-.2-28.41a4.17,4.17,0,0,1,1.77-3q20.94-12.27,42-24.31a3.07,3.07,0,0,1,2.42-.38c4.09,2.22,8.09,4.61,12.73,7.29l-3.48,2c-12.81,7.39-25.56,14.89-38.47,22.1-2.85,1.59-3.46,3.42-3.39,6.4.27,13.16.33,26.32.45,39.48,0,1-.09,2-.13,2.95Z" transform="translate(-238.78 -364.33)"/><path class="cls-1" d="M349.27,387.29c4.23,7.34,8.48,14.67,12.68,22a5,5,0,0,1,.5,2.26c.12,9.47.25,18.94.2,28.41a4.12,4.12,0,0,1-1.76,3q-21,12.28-42,24.31a3.07,3.07,0,0,1-2.42.38c-4.09-2.22-8.09-4.6-12.73-7.29l3.48-2c12.81-7.4,25.56-14.9,38.47-22.1,2.85-1.59,3.46-3.43,3.39-6.41-.27-13.16-.33-26.32-.45-39.48,0-1,.09-2,.13-2.94Z" transform="translate(-238.78 -364.33)"/></svg>